<svg xmlns="http://www.w3.org/2000/svg" viewBox="-49 141 512 512" id="report"><path fill="none" d="M306.9 269h52L296 208.2v51.3c0 5 5.1 9.5 10.9 9.5z"></path><path fill="none" d="M306.9 309c-28.1 0-50.9-22.2-50.9-49.6v-77.7l-216.6-.6c-5.5 0-10.4 4.7-10.4 10v411.8c0 5.2 5.3 10.2 10.9 10.2h339c5.7 0 9.1-5.2 9.1-10.2V309h-81.1zM271 388c11 0 20 9 20 20s-9 20-20 20H96c-11 0-20-9-20-20s9-20 20-20h175zM95 308h116c11 0 20 9 20 20s-9 20-20 20H95c-11 0-20-9-20-20s9-20 20-20zm226 200H96c-11 0-20-9-20-20s9-20 20-20h225c11 0 20 9 20 20s-9 20-20 20z"></path><linearGradient id="a" x1="-17.898" x2="475.723" y1="397.05" y2="397.05" gradientUnits="userSpaceOnUse"><stop offset="0" stop-color="#FF884B"></stop><stop offset=".35" stop-color="#FF634C"></stop><stop offset=".655" stop-color="#FE4A4F"></stop><stop offset="1" stop-color="#FE4840"></stop></linearGradient><path fill="url(#a)" d="M418.2 270.8 296.5 153c-7.4-7.2-17.5-11.3-27.9-11.3l-229.2-.6c-27.8 0-50.4 22.4-50.4 50v411.8C-11 630 12.3 653 39.9 653h339c27.1 0 49.1-22.5 49.1-50.2V294.7c0-9.3-3.5-17.8-9.8-23.9zM296 208.2l62.9 60.8h-52c-5.8 0-10.9-4.5-10.9-9.6v-51.2zM378.9 613h-339c-5.6 0-10.9-4.9-10.9-10.2V191.1c0-5.3 4.9-10 10.4-10l216.6.6v77.7c0 27.3 22.8 49.6 50.9 49.6H388v293.8c0 5-3.4 10.2-9.1 10.2z"></path><linearGradient id="b" x1="-17.898" x2="475.723" y1="408" y2="408" gradientUnits="userSpaceOnUse"><stop offset="0" stop-color="#FF884B"></stop><stop offset=".35" stop-color="#FF634C"></stop><stop offset=".655" stop-color="#FE4A4F"></stop><stop offset="1" stop-color="#FE4840"></stop></linearGradient><path fill="url(#b)" d="M76 408c0 11 9 20 20 20h175c11 0 20-9 20-20s-9-20-20-20H96c-11 0-20 9-20 20z"></path><linearGradient id="c" x1="-17.898" x2="475.723" y1="328" y2="328" gradientUnits="userSpaceOnUse"><stop offset="0" stop-color="#FF884B"></stop><stop offset=".35" stop-color="#FF634C"></stop><stop offset=".655" stop-color="#FE4A4F"></stop><stop offset="1" stop-color="#FE4840"></stop></linearGradient><path fill="url(#c)" d="M95 348h116c11 0 20-9 20-20s-9-20-20-20H95c-11 0-20 9-20 20s9 20 20 20z"></path><linearGradient id="d" x1="-17.898" x2="475.723" y1="488" y2="488" gradientUnits="userSpaceOnUse"><stop offset="0" stop-color="#FF884B"></stop><stop offset=".35" stop-color="#FF634C"></stop><stop offset=".655" stop-color="#FE4A4F"></stop><stop offset="1" stop-color="#FE4840"></stop></linearGradient><path fill="url(#d)" d="M321 468H96c-11 0-20 9-20 20s9 20 20 20h225c11 0 20-9 20-20s-9-20-20-20z"></path></svg>